<svg xmlns="http://www.w3.org/2000/svg" width="75" height="75" viewBox="0 0 75 75"><g transform="translate(-945 -284)"><path d="M0,0H75V75H0Z" transform="translate(945 284)" fill="#ae0077"/><g transform="translate(771.462 110.858)"><path d="M238.224,216.42a9.975,9.975,0,1,0-12.38,9.669c-1.309,4.331-4.282,7.4-10.854,7.4-3.82,0-6.771-1.129-8.771-3.355-3.766-4.192-3.141-11.018-3.115-11.283,12.772-1.238,15.44-19.24,15.44-24.187,0-2.287-2.184-3.925-4.21-4.957a4.823,4.823,0,1,0-.823,2.786c1.233.69,2.2,1.489,2.2,2.171,0,.215-.823,21.426-14.013,21.426s-14.012-21.211-14.012-21.426c0-.678.968-1.477,2.2-2.168a4.827,4.827,0,1,0-.825-2.789c-2.026,1.032-4.21,2.67-4.21,4.957,0,4.943,2.664,22.92,15.41,24.183-.118,1.585-.359,8.48,3.837,13.166,2.56,2.86,6.225,4.31,10.891,4.31,8.815,0,12.311-4.931,13.711-9.949A9.978,9.978,0,0,0,238.224,216.42Zm-28.711-24.785a1.844,1.844,0,1,1,1.843-1.844A1.846,1.846,0,0,1,209.513,191.635Zm-15.629-3.688a1.844,1.844,0,1,1-1.844,1.844A1.847,1.847,0,0,1,193.884,187.947Zm34.365,35.614a7.141,7.141,0,1,1,7.141-7.141A7.149,7.149,0,0,1,228.249,223.561Z" transform="translate(0)" fill="#fff" stroke="#ae0077" stroke-width="1"/><path d="M246.58,224.227a4.846,4.846,0,1,0,4.846,4.846A4.852,4.852,0,0,0,246.58,224.227Zm0,6.859a2.013,2.013,0,1,1,2.013-2.014A2.015,2.015,0,0,1,246.58,231.086Z" transform="translate(-18.331 -12.653)" fill="#fff" stroke="#ae0077" stroke-width="1"/></g></g></svg>