<svg xmlns="http://www.w3.org/2000/svg" width="124" height="124" viewBox="0 0 124 124"><g transform="translate(-291 -1010)"><circle cx="62" cy="62" r="62" transform="translate(291 1010)" fill="#ae0077"/><g transform="translate(266.963 601.053)"><path d="M107.936,439.967H96.923a12.389,12.389,0,0,0-22.361,0H63.534a6.832,6.832,0,0,0-6.825,6.824v54.918a6.832,6.832,0,0,0,6.825,6.824h44.4a6.832,6.832,0,0,0,6.826-6.824V446.791A6.833,6.833,0,0,0,107.936,439.967ZM85.742,457.748a12.428,12.428,0,0,0,11.723-8.361h7.3V497.4H66.7V449.387h7.315A12.428,12.428,0,0,0,85.742,457.748Zm0-21.932a9.516,9.516,0,1,1-9.516,9.516A9.527,9.527,0,0,1,85.742,435.816Zm26.12,65.894a3.929,3.929,0,0,1-3.925,3.924h-44.4a3.928,3.928,0,0,1-3.925-3.924V446.791a3.928,3.928,0,0,1,3.925-3.924H73.573a12.44,12.44,0,0,0-.247,2.464c0,.39.023.774.059,1.155h-8.13a1.451,1.451,0,0,0-1.45,1.45v50.915a1.451,1.451,0,0,0,1.45,1.45h40.96a1.45,1.45,0,0,0,1.45-1.45V447.937a1.45,1.45,0,0,0-1.45-1.45H98.1c.036-.381.059-.765.059-1.155a12.439,12.439,0,0,0-.247-2.464h10.025a3.929,3.929,0,0,1,3.925,3.924Z" transform="translate(0 0)" fill="#fff"/><path d="M87.5,451.991h2.9V447.7h4.289v-2.9H90.4v-4.289H87.5V444.8H83.211v2.9H87.5Z" transform="translate(-3.207 -0.919)" fill="#fff"/><path d="M92.978,471.32H122.79a1.45,1.45,0,1,0,0-2.9H92.978a1.45,1.45,0,1,0,0,2.9Z" transform="translate(-22.149 -4.297)" fill="#fff"/><path d="M92.978,471.32H122.79a1.45,1.45,0,1,0,0-2.9H92.978a1.45,1.45,0,1,0,0,2.9Z" transform="translate(-22.149 5.703)" fill="#fff"/><path d="M92.978,471.32h17.264a1.45,1.45,0,1,0,0-2.9H92.978a1.45,1.45,0,1,0,0,2.9Z" transform="translate(-22.149 16.703)" fill="#fff"/></g></g></svg>