<svg xmlns="http://www.w3.org/2000/svg" width="124" height="124" viewBox="0 0 124 124"><g transform="translate(-1028 -1085)"><circle cx="62" cy="62" r="62" transform="translate(1028 1085)" fill="#ae0077"/><g transform="translate(-660.642 24.47)"><g transform="translate(1737.959 1100.83)"><g transform="translate(0 0)"><path d="M1850.264,1193.648a1.4,1.4,0,0,1-1.133-2.222,14.427,14.427,0,0,0,2.756-8.515,14.653,14.653,0,0,0-25.224-10.069,1.4,1.4,0,1,1-2.021-1.94,17.413,17.413,0,0,1,26.757,22.167A1.4,1.4,0,0,1,1850.264,1193.648Z" transform="translate(-1824.252 -1165.534)" fill="#fff"/></g></g><g transform="translate(1735.637 1108.5)"><g transform="translate(0 0)"><path d="M1816.253,1199.473a1.4,1.4,0,0,1-1.173-2.164l.064-.1a1.4,1.4,0,0,1,2.343,1.535l-.059.091A1.4,1.4,0,0,1,1816.253,1199.473Z" transform="translate(-1814.854 -1196.576)" fill="#fff"/></g></g><g transform="translate(1733.514 1111.991)"><g transform="translate(0 0)"><path d="M1810.281,1227.075a1.4,1.4,0,0,1-1.171-.63,17.361,17.361,0,0,1-2.044-14.763,1.4,1.4,0,1,1,2.671.847,14.557,14.557,0,0,0,1.713,12.376,1.4,1.4,0,0,1-1.169,2.171Z" transform="translate(-1806.259 -1210.704)" fill="#fff"/></g></g><g transform="translate(1736.231 1125.795)"><g transform="translate(0 0)"><path d="M1823.458,1284.226a1.4,1.4,0,0,1-.8-.249,4.261,4.261,0,0,1-1.868-4.4,17.439,17.439,0,0,0-.47-4.517,16.13,16.13,0,0,0-2.009-4.771c-.3-.534-.6-1.086-.9-1.678a1.4,1.4,0,1,1,2.493-1.278c.283.552.577,1.084.862,1.6a18.548,18.548,0,0,1,2.3,5.574,19.8,19.8,0,0,1,.518,5.274c-.087,1.181,0,1.428.668,1.889a1.4,1.4,0,0,1-.8,2.553Z" transform="translate(-1817.257 -1266.573)" fill="#fff"/></g></g><g transform="translate(1757.838 1127.067)"><g transform="translate(0)"><path d="M1906.107,1288.1a1.4,1.4,0,0,1-.8-2.553c.667-.461.754-.708.667-1.89a19.821,19.821,0,0,1,.518-5.273,18.563,18.563,0,0,1,2.306-5.578l.2-.361a1.4,1.4,0,1,1,2.454,1.351l-.2.365a16.129,16.129,0,0,0-2.01,4.774,17.42,17.42,0,0,0-.47,4.516,4.261,4.261,0,0,1-1.868,4.4A1.394,1.394,0,0,1,1906.107,1288.1Z" transform="translate(-1904.705 -1271.722)" fill="#fff"/></g></g><g transform="translate(1741.8 1141.141)"><g transform="translate(0 0)"><path d="M1855.138,1331.486H1841.2a1.4,1.4,0,0,1,0-2.8h13.942a1.4,1.4,0,0,1,0,2.8Z" transform="translate(-1839.796 -1328.685)" fill="#fff"/></g></g><g transform="translate(1741.262 1144.313)"><g transform="translate(0 0)"><path d="M1839.838,1345.692c-.806,0-.965-.108-1.2-.268a2.323,2.323,0,0,1-1.015-2.032,2.047,2.047,0,0,1,1.171-1.72,1.4,1.4,0,0,1,2.028,1.177c2.646-.178,8.913-.82,13.395-1.317a1.4,1.4,0,0,1,.309,2.785c-.036,0-3.685.408-7.337.774C1842.828,1345.526,1840.837,1345.691,1839.838,1345.692Z" transform="translate(-1837.617 -1341.522)" fill="#fff"/></g></g><g transform="translate(1741.429 1148.102)"><g transform="translate(0)"><path d="M1840.516,1361.027c-.805,0-.964-.107-1.2-.267a2.324,2.324,0,0,1-1.015-2.034,2.046,2.046,0,0,1,1.171-1.719,1.4,1.4,0,0,1,2.028,1.177c2.485-.166,8.229-.745,13.395-1.318a1.4,1.4,0,0,1,.309,2.785c-.036,0-3.686.408-7.337.774C1843.5,1360.862,1841.514,1361.027,1840.516,1361.027Z" transform="translate(-1838.295 -1356.858)" fill="#fff"/></g></g><g transform="translate(1741.429 1152.142)"><g transform="translate(0 0)"><path d="M1840.517,1377.381c-.806,0-.965-.108-1.2-.268a2.325,2.325,0,0,1-1.015-2.033,2.046,2.046,0,0,1,1.171-1.719,1.4,1.4,0,0,1,2.028,1.177c2.485-.166,8.229-.745,13.395-1.318a1.4,1.4,0,0,1,.309,2.785c-.036,0-3.686.408-7.337.774C1843.506,1377.215,1841.515,1377.381,1840.517,1377.381Z" transform="translate(-1838.296 -1373.211)" fill="#fff"/></g></g><g transform="translate(1756.278 1148.208)"><path d="M1899.793,1361.019a1.4,1.4,0,0,1-1.025-2.355l.866-.93a1.4,1.4,0,0,1,2.051,1.908l-.866.931A1.4,1.4,0,0,1,1899.793,1361.019Z" transform="translate(-1898.393 -1357.287)" fill="#fff"/></g><g transform="translate(1756.278 1144.419)"><path d="M1899.793,1345.685a1.4,1.4,0,0,1-1.025-2.355l.866-.931a1.4,1.4,0,0,1,2.051,1.908l-.866.931A1.4,1.4,0,0,1,1899.793,1345.685Z" transform="translate(-1898.393 -1341.953)" fill="#fff"/></g><g transform="translate(1756.446 1152.416)"><g transform="translate(0)"><path d="M1900.471,1378.051a1.4,1.4,0,0,1-1.025-2.355l.865-.93a1.4,1.4,0,0,1,2.051,1.908l-.866.93A1.4,1.4,0,0,1,1900.471,1378.051Z" transform="translate(-1899.071 -1374.319)" fill="#fff"/></g></g><g transform="translate(1743.053 1155.857)"><g transform="translate(0 0)"><path d="M1856.019,1393.852h-7.188a1.4,1.4,0,0,1-1.035-.456l-2.561-2.805a1.4,1.4,0,0,1,2.069-1.889l2.145,2.349h5.886l1.644-2.11a1.4,1.4,0,1,1,2.21,1.722l-2.065,2.649A1.4,1.4,0,0,1,1856.019,1393.852Z" transform="translate(-1844.869 -1388.245)" fill="#fff"/></g></g><g transform="translate(1749.191 1079.597)"><g transform="translate(0 0)"><rect width="2.718" height="12.5" fill="#fff"/></g></g><g transform="translate(1723.388 1086.801)"><g transform="translate(0 0)"><rect width="2.802" height="12.154" transform="matrix(0.785, -0.619, 0.619, 0.785, 0, 1.735)" fill="#fff"/></g></g><g transform="translate(1717.07 1135.054)"><g transform="translate(0 0)"><rect width="12.154" height="2.802" transform="translate(0 7.432) rotate(-37.694)" fill="#fff"/></g></g><g transform="translate(1773.701 1135.054)"><g transform="translate(0 0)"><g transform="translate(0)"><rect width="2.802" height="12.154" transform="translate(0 2.217) rotate(-52.308)" fill="#fff"/></g></g></g><g transform="translate(1768.252 1087.536)"><g transform="translate(0 0)"><rect width="12.154" height="2.802" transform="translate(0 9.544) rotate(-51.74)" fill="#fff"/></g></g><g transform="translate(1709.642 1114.626)"><g transform="translate(0 0)"><rect width="2.802" height="12.154" transform="matrix(0.022, -1, 1, 0.022, 0, 2.801)" fill="#fff"/></g></g><g transform="translate(1779.696 1114.81)"><g transform="translate(0 0)"><rect width="12.154" height="2.802" transform="translate(0 0.265) rotate(-1.249)" fill="#fff"/></g></g><g transform="translate(1737.009 1086.626)"><g transform="translate(0 0)"><rect width="2.718" height="6.574" transform="matrix(0.942, -0.334, 0.334, 0.942, 0, 0.908)" fill="#fff"/></g></g><g transform="translate(1758.796 1086.182)"><g transform="translate(0 0)"><rect width="6.574" height="2.718" transform="translate(0 6.196) rotate(-70.473)" fill="#fff"/></g></g><g transform="translate(1717.605 1101.331)"><g transform="translate(0 0)"><rect width="2.718" height="6.574" transform="translate(0 2.458) rotate(-64.747)" fill="#fff"/></g></g><g transform="translate(1715.198 1126.325)"><g transform="translate(0 0)"><rect width="6.574" height="2.718" transform="matrix(0.972, -0.235, 0.235, 0.972, 0, 1.545)" fill="#fff"/></g></g><g transform="translate(1779.894 1126.77)"><g transform="translate(0 0)"><rect width="2.718" height="6.574" transform="translate(0 2.642) rotate(-76.405)" fill="#fff"/></g></g><g transform="translate(1777.632 1100.442)"><g transform="translate(0 0)"><rect width="6.574" height="2.718" transform="translate(0 2.805) rotate(-25.253)" fill="#fff"/></g></g></g></g></svg>