<svg xmlns="http://www.w3.org/2000/svg" width="75" height="75" viewBox="0 0 75 75"><g transform="translate(-213 -1290.5)"><path d="M0,0H75V75H0Z" transform="translate(213 1290.5)" fill="#ae0077"/><path d="M216.763,331.793l-.57-.108c2.44-4.178,4.054-11.309,1.758-16.577-1.231-2.825-4.083-6.193-10.675-6.193s-9.442,3.368-10.674,6.193c-2.3,5.268-.682,12.4,1.758,16.577l-.569.107c-7.843,1.472-17.6,3.3-17.6,21.809,0,5.206,7.811,8.115,23.217,8.644h.069a1.592,1.592,0,0,0,.79-2.975c-2.849-2.083-6.174-5.306-6.155-8.992a4,4,0,0,1,3.416-4.255,4.4,4.4,0,0,1,.815-.08c2.519,0,3.374,2.744,3.406,2.852a1.588,1.588,0,0,0,1.522,1.148h.011a1.6,1.6,0,0,0,1.525-1.137c.035-.117.891-2.862,3.409-2.862a4.389,4.389,0,0,1,.814.08,4,4,0,0,1,3.417,4.255c.02,3.742-3.405,7.005-6.283,9.084a1.592,1.592,0,0,0,.932,2.882h.055c15.406-.53,23.217-3.438,23.217-8.644C234.366,335.095,224.606,333.264,216.763,331.793Zm-1.094,27.014c2.2-2.309,3.975-5.206,3.959-8.544a7.213,7.213,0,0,0-6.017-7.369,7.663,7.663,0,0,0-1.4-.134,6.325,6.325,0,0,0-4.937,2.365,6.321,6.321,0,0,0-4.936-2.365,7.677,7.677,0,0,0-1.4.134,7.215,7.215,0,0,0-6.016,7.369c-.017,3.338,1.756,6.235,3.959,8.544-10.675-.838-15.514-3.113-15.514-5.206,0-15.865,7.289-17.231,15.007-18.679l.7-.132c.045-.009.091-.02.135-.032,1.186-.335,1.787-.467,2.082-.519a1.592,1.592,0,0,0,.889-2.652c-2.548-2.742-4.791-10.335-2.668-15.207,1.238-2.841,3.847-4.281,7.755-4.281s6.518,1.441,7.756,4.281c2.124,4.872-.119,12.465-2.668,15.207a1.592,1.592,0,0,0,.889,2.652c.3.052.9.184,2.083.519.044.012.09.023.135.032l.7.132c7.717,1.448,15.006,2.815,15.006,18.679C231.182,355.694,226.344,357.969,215.669,358.807Z" transform="translate(43.223 991.474)" fill="#fff" stroke="#ae0077" stroke-width="1"/></g></svg>